<mxfile host="Electron" modified="2024-06-02T22:31:12.739Z" agent="Mozilla/5.0 (Windows NT 10.0; Win64; x64) AppleWebKit/537.36 (KHTML, like Gecko) draw.io/24.4.13 Chrome/124.0.6367.207 Electron/30.0.6 Safari/537.36" etag="jVM8xxh_PWLXMhXMS8UN" version="24.4.13" type="device">
  <diagram name="Страница — 1" id="h7g5gqVR5HwbuyoajIA5">
    <mxGraphModel dx="1152" dy="674" grid="1" gridSize="10" guides="1" tooltips="1" connect="1" arrows="1" fold="1" page="1" pageScale="1" pageWidth="827" pageHeight="1169" math="0" shadow="0">
      <root>
        <mxCell id="0" />
        <mxCell id="1" parent="0" />
        <mxCell id="vorkMt_Ca0vTUnIrm9W2-1" value="Начало" style="rounded=1;whiteSpace=wrap;html=1;arcSize=50;" vertex="1" parent="1">
          <mxGeometry x="395" y="30" width="90" height="20" as="geometry" />
        </mxCell>
        <mxCell id="vorkMt_Ca0vTUnIrm9W2-2" value="" style="endArrow=none;dashed=1;html=1;rounded=0;exitX=0;exitY=0.5;exitDx=0;exitDy=0;entryX=1;entryY=0.5;entryDx=0;entryDy=0;exitPerimeter=0;" edge="1" parent="1" source="vorkMt_Ca0vTUnIrm9W2-3" target="vorkMt_Ca0vTUnIrm9W2-1">
          <mxGeometry width="50" height="50" relative="1" as="geometry">
            <mxPoint x="520" y="40" as="sourcePoint" />
            <mxPoint x="510" y="10" as="targetPoint" />
          </mxGeometry>
        </mxCell>
        <mxCell id="vorkMt_Ca0vTUnIrm9W2-3" value="    Входные параметры:&#xa;     mas, length, Table" style="strokeWidth=2;shape=mxgraph.flowchart.annotation_1;align=left;pointerEvents=1;recursiveResize=1;autosize=0;verticalAlign=middle;horizontal=1;" vertex="1" parent="1">
          <mxGeometry x="540" y="10" width="20" height="60" as="geometry" />
        </mxCell>
        <mxCell id="vorkMt_Ca0vTUnIrm9W2-4" value="" style="endArrow=none;html=1;rounded=0;exitX=0.5;exitY=1;exitDx=0;exitDy=0;entryX=0.5;entryY=0;entryDx=0;entryDy=0;" edge="1" parent="1" source="vorkMt_Ca0vTUnIrm9W2-1" target="vorkMt_Ca0vTUnIrm9W2-5">
          <mxGeometry width="50" height="50" relative="1" as="geometry">
            <mxPoint x="340" y="150" as="sourcePoint" />
            <mxPoint x="390" y="100" as="targetPoint" />
          </mxGeometry>
        </mxCell>
        <mxCell id="vorkMt_Ca0vTUnIrm9W2-5" value="&lt;div&gt;Table.ColumnCount = length;&lt;/div&gt;" style="rounded=0;whiteSpace=wrap;html=1;" vertex="1" parent="1">
          <mxGeometry x="355" y="60" width="170" height="20" as="geometry" />
        </mxCell>
        <mxCell id="vorkMt_Ca0vTUnIrm9W2-6" value="" style="endArrow=none;html=1;rounded=0;entryX=0.5;entryY=1;entryDx=0;entryDy=0;exitX=0.5;exitY=0;exitDx=0;exitDy=0;exitPerimeter=0;" edge="1" parent="1" source="vorkMt_Ca0vTUnIrm9W2-7" target="vorkMt_Ca0vTUnIrm9W2-16">
          <mxGeometry width="50" height="50" relative="1" as="geometry">
            <mxPoint x="340" y="150" as="sourcePoint" />
            <mxPoint x="390" y="100" as="targetPoint" />
          </mxGeometry>
        </mxCell>
        <mxCell id="vorkMt_Ca0vTUnIrm9W2-7" value="i = 0; length" style="strokeWidth=2;html=1;shape=mxgraph.flowchart.loop_limit;whiteSpace=wrap;" vertex="1" parent="1">
          <mxGeometry x="390" y="120" width="100" height="30" as="geometry" />
        </mxCell>
        <mxCell id="vorkMt_Ca0vTUnIrm9W2-8" value="" style="endArrow=none;html=1;rounded=0;entryX=0.5;entryY=0;entryDx=0;entryDy=0;exitX=0.5;exitY=1;exitDx=0;exitDy=0;exitPerimeter=0;" edge="1" parent="1" source="vorkMt_Ca0vTUnIrm9W2-7" target="vorkMt_Ca0vTUnIrm9W2-9">
          <mxGeometry width="50" height="50" relative="1" as="geometry">
            <mxPoint x="430" y="190" as="sourcePoint" />
            <mxPoint x="460" y="110" as="targetPoint" />
          </mxGeometry>
        </mxCell>
        <mxCell id="vorkMt_Ca0vTUnIrm9W2-9" value="Table.Rows[0].Cells[i].Value = &quot;[&quot; + i + &quot;]&quot;;" style="shape=process;whiteSpace=wrap;html=1;backgroundOutline=1;" vertex="1" parent="1">
          <mxGeometry x="300" y="160" width="280" height="20" as="geometry" />
        </mxCell>
        <mxCell id="vorkMt_Ca0vTUnIrm9W2-10" value="i++" style="strokeWidth=2;html=1;shape=mxgraph.flowchart.loop_limit;whiteSpace=wrap;direction=west;" vertex="1" parent="1">
          <mxGeometry x="390" y="220" width="100" height="30" as="geometry" />
        </mxCell>
        <mxCell id="vorkMt_Ca0vTUnIrm9W2-11" value="" style="endArrow=none;html=1;rounded=0;entryX=0.5;entryY=1;entryDx=0;entryDy=0;exitX=0.5;exitY=1;exitDx=0;exitDy=0;exitPerimeter=0;" edge="1" parent="1" source="vorkMt_Ca0vTUnIrm9W2-10" target="vorkMt_Ca0vTUnIrm9W2-14">
          <mxGeometry width="50" height="50" relative="1" as="geometry">
            <mxPoint x="390" y="210" as="sourcePoint" />
            <mxPoint x="440" y="160" as="targetPoint" />
          </mxGeometry>
        </mxCell>
        <mxCell id="vorkMt_Ca0vTUnIrm9W2-12" value="Конец" style="rounded=1;whiteSpace=wrap;html=1;arcSize=50;" vertex="1" parent="1">
          <mxGeometry x="400" y="260" width="80" height="20" as="geometry" />
        </mxCell>
        <mxCell id="vorkMt_Ca0vTUnIrm9W2-13" value="" style="endArrow=none;html=1;rounded=0;entryX=0.5;entryY=0;entryDx=0;entryDy=0;entryPerimeter=0;exitX=0.5;exitY=0;exitDx=0;exitDy=0;" edge="1" parent="1" source="vorkMt_Ca0vTUnIrm9W2-12" target="vorkMt_Ca0vTUnIrm9W2-10">
          <mxGeometry width="50" height="50" relative="1" as="geometry">
            <mxPoint x="390" y="250" as="sourcePoint" />
            <mxPoint x="440" y="200" as="targetPoint" />
          </mxGeometry>
        </mxCell>
        <mxCell id="vorkMt_Ca0vTUnIrm9W2-14" value="Table.Rows[1].Cells[i].Value = mas[i];" style="shape=process;whiteSpace=wrap;html=1;backgroundOutline=1;" vertex="1" parent="1">
          <mxGeometry x="310" y="190" width="260" height="20" as="geometry" />
        </mxCell>
        <mxCell id="vorkMt_Ca0vTUnIrm9W2-15" value="" style="endArrow=none;html=1;rounded=0;entryX=0.5;entryY=0;entryDx=0;entryDy=0;exitX=0.5;exitY=1;exitDx=0;exitDy=0;" edge="1" parent="1" source="vorkMt_Ca0vTUnIrm9W2-9" target="vorkMt_Ca0vTUnIrm9W2-14">
          <mxGeometry width="50" height="50" relative="1" as="geometry">
            <mxPoint x="450" y="240" as="sourcePoint" />
            <mxPoint x="710" y="210" as="targetPoint" />
          </mxGeometry>
        </mxCell>
        <mxCell id="vorkMt_Ca0vTUnIrm9W2-16" value="Table.RowCount = 2;" style="rounded=0;whiteSpace=wrap;html=1;" vertex="1" parent="1">
          <mxGeometry x="355" y="90" width="170" height="20" as="geometry" />
        </mxCell>
        <mxCell id="vorkMt_Ca0vTUnIrm9W2-17" value="" style="endArrow=none;html=1;rounded=0;entryX=0.5;entryY=0;entryDx=0;entryDy=0;exitX=0.5;exitY=1;exitDx=0;exitDy=0;" edge="1" parent="1" source="vorkMt_Ca0vTUnIrm9W2-5" target="vorkMt_Ca0vTUnIrm9W2-16">
          <mxGeometry width="50" height="50" relative="1" as="geometry">
            <mxPoint x="450" y="190" as="sourcePoint" />
            <mxPoint x="615" y="140" as="targetPoint" />
          </mxGeometry>
        </mxCell>
      </root>
    </mxGraphModel>
  </diagram>
</mxfile>
